<svg viewBox="0 0 200 200" width="256" height="256" xmlns="http://www.w3.org/2000/svg"><circle cx="100" cy="100" r="92" fill="#8C6579"/><circle cx="100" cy="100" r="84" fill="#150C09"/><circle cx="100" cy="100" r="78" fill="none" stroke="#AC91A0" stroke-width="2" stroke-opacity=".7"/><circle cx="188.0" cy="100.0" r="2.8" fill="#A48696"/><circle cx="181.3" cy="133.7" r="2.8" fill="#A48696"/><circle cx="162.2" cy="162.2" r="2.8" fill="#A48696"/><circle cx="133.7" cy="181.3" r="2.8" fill="#A48696"/><circle cx="100.0" cy="188.0" r="2.8" fill="#A48696"/><circle cx="66.3" cy="181.3" r="2.8" fill="#A48696"/><circle cx="37.8" cy="162.2" r="2.8" fill="#A48696"/><circle cx="18.7" cy="133.7" r="2.8" fill="#A48696"/><circle cx="12.0" cy="100.0" r="2.8" fill="#A48696"/><circle cx="18.7" cy="66.3" r="2.8" fill="#A48696"/><circle cx="37.8" cy="37.8" r="2.8" fill="#A48696"/><circle cx="66.3" cy="18.7" r="2.8" fill="#A48696"/><circle cx="100.0" cy="12.0" r="2.8" fill="#A48696"/><circle cx="133.7" cy="18.7" r="2.8" fill="#A48696"/><circle cx="162.2" cy="37.8" r="2.8" fill="#A48696"/><circle cx="181.3" cy="66.3" r="2.8" fill="#A48696"/><defs><radialGradient id="bademon"><stop offset="0" stop-color="#E06A8A" stop-opacity=".00"/><stop offset=".62" stop-color="#E06A8A" stop-opacity="0.20"/><stop offset="1" stop-color="#E06A8A" stop-opacity="0"/></radialGradient></defs><circle cx="100" cy="100" r="84" fill="url(#bademon)"/><line x1="144.0" y1="100.0" x2="176.0" y2="100.0" stroke="#E06A8A" stroke-width="2.0" stroke-opacity="0.26"/><line x1="138.1" y1="122.0" x2="165.8" y2="138.0" stroke="#E06A8A" stroke-width="1.1" stroke-opacity="0.26"/><line x1="122.0" y1="138.1" x2="138.0" y2="165.8" stroke="#E06A8A" stroke-width="1.1" stroke-opacity="0.26"/><line x1="100.0" y1="144.0" x2="100.0" y2="176.0" stroke="#E06A8A" stroke-width="2.0" stroke-opacity="0.26"/><line x1="78.0" y1="138.1" x2="62.0" y2="165.8" stroke="#E06A8A" stroke-width="1.1" stroke-opacity="0.26"/><line x1="61.9" y1="122.0" x2="34.2" y2="138.0" stroke="#E06A8A" stroke-width="1.1" stroke-opacity="0.26"/><line x1="56.0" y1="100.0" x2="24.0" y2="100.0" stroke="#E06A8A" stroke-width="2.0" stroke-opacity="0.26"/><line x1="61.9" y1="78.0" x2="34.2" y2="62.0" stroke="#E06A8A" stroke-width="1.1" stroke-opacity="0.26"/><line x1="78.0" y1="61.9" x2="62.0" y2="34.2" stroke="#E06A8A" stroke-width="1.1" stroke-opacity="0.26"/><line x1="100.0" y1="56.0" x2="100.0" y2="24.0" stroke="#E06A8A" stroke-width="2.0" stroke-opacity="0.26"/><line x1="122.0" y1="61.9" x2="138.0" y2="34.2" stroke="#E06A8A" stroke-width="1.1" stroke-opacity="0.26"/><line x1="138.1" y1="78.0" x2="165.8" y2="62.0" stroke="#E06A8A" stroke-width="1.1" stroke-opacity="0.26"/><circle cx="170.6" cy="114.3" r="3.2" fill="#E06A8A" fill-opacity="0.63"/><circle cx="139.8" cy="160.0" r="3.2" fill="#E06A8A" fill-opacity="0.63"/><circle cx="85.7" cy="170.6" r="3.2" fill="#E06A8A" fill-opacity="0.63"/><circle cx="40.0" cy="139.8" r="3.2" fill="#E06A8A" fill-opacity="0.63"/><circle cx="29.4" cy="85.7" r="3.2" fill="#E06A8A" fill-opacity="0.63"/><circle cx="60.2" cy="40.0" r="3.2" fill="#E06A8A" fill-opacity="0.63"/><circle cx="114.3" cy="29.4" r="3.2" fill="#E06A8A" fill-opacity="0.63"/><circle cx="160.0" cy="60.2" r="3.2" fill="#E06A8A" fill-opacity="0.63"/><g transform="translate(100 104) scale(.80) translate(-100 -104)"><path d="M 50 184.0 q 50 -22 100 0 L 100 184.0 Z" fill="#CBB6C8" stroke="none" stroke-width="2.0" stroke-linecap="round" fill-opacity="1.00"/><path d="M 62 182.0 q 38 -16 76 0" fill="none" stroke="#7A2E52" stroke-width="3.0" stroke-linecap="round" fill-opacity="0.70"/><polygon points="124.0,66.0 135.0,28.6 142.7,70.0" fill="#CBB6C8" fill-opacity="1.00"/><polygon points="76.0,66.0 65.0,28.6 57.3,70.0" fill="#CBB6C8" fill-opacity="1.00"/><polygon points="60.0,87.1 78.0,64.0 122.0,64.0 140.0,87.1 124.8,145.9 75.2,145.9" fill="#CBB6C8" fill-opacity="1.00"/><path d="M 60.0 92.0 Q 100 76.7 140.0 92.0 L 136.0 101.0 Q 100 90.2 64.0 101.0 Z" fill="#7A2E52" stroke="none" stroke-width="2.0" stroke-linecap="round" fill-opacity="0.90"/><path d="M 126.0 120.0 q 5.0 8 2.0 14" fill="none" stroke="#7A2E52" stroke-width="3.6" stroke-linecap="round" fill-opacity="0.75"/><path d="M 74.0 120.0 q -5.0 8 -2.0 14" fill="none" stroke="#7A2E52" stroke-width="3.6" stroke-linecap="round" fill-opacity="0.75"/><path d="M 137.0 127.0 q 5.0 8 2.0 14" fill="none" stroke="#7A2E52" stroke-width="3.6" stroke-linecap="round" fill-opacity="0.75"/><path d="M 63.0 127.0 q -5.0 8 -2.0 14" fill="none" stroke="#7A2E52" stroke-width="3.6" stroke-linecap="round" fill-opacity="0.75"/><path d="M 148.0 134.0 q 5.0 8 2.0 14" fill="none" stroke="#7A2E52" stroke-width="3.6" stroke-linecap="round" fill-opacity="0.75"/><path d="M 52.0 134.0 q -5.0 8 -2.0 14" fill="none" stroke="#7A2E52" stroke-width="3.6" stroke-linecap="round" fill-opacity="0.75"/><ellipse cx="120.0" cy="106.0" rx="13.0" ry="7.0" fill="#150C09" fill-opacity="1.00" transform="rotate(-12.0 120.0 106.0)"/><ellipse cx="80.0" cy="106.0" rx="13.0" ry="7.0" fill="#150C09" fill-opacity="1.00" transform="rotate(12.0 80.0 106.0)"/><ellipse cx="120.0" cy="106.0" rx="4.0" ry="6.0" fill="#E06A8A" fill-opacity="1.00" transform="rotate(0.0 120.0 106.0)"/><ellipse cx="80.0" cy="106.0" rx="4.0" ry="6.0" fill="#E06A8A" fill-opacity="1.00" transform="rotate(0.0 80.0 106.0)"/><polygon points="108.0,146.0 118.0,146.0 113.0,161.0" fill="#150C09" fill-opacity="1.00"/><polygon points="92.0,146.0 82.0,146.0 87.0,161.0" fill="#150C09" fill-opacity="1.00"/><polygon points="117.0,146.0 127.0,146.0 122.0,161.0" fill="#150C09" fill-opacity="1.00"/><polygon points="83.0,146.0 73.0,146.0 78.0,161.0" fill="#150C09" fill-opacity="1.00"/></g></svg>