<svg xmlns="http://www.w3.org/2000/svg" viewBox="0 0 512 512" width="24" height="24" fill="currentColor" aria-hidden="true"><path d="M343.3 22.2c-57.3 0-61.3 36.2-91.1 54.9C154.8 42.5 133.1 221.5 169.8 330c-15.4 31.9-30.7 75.9-43.8 134.9 56.8 30.7 119.1 38.7 182.2 9.9-6.2-37.7-14.2-68.9-22-95.4 25-12.6 59.6-14.6 86.5 14.4.2-28.6-19-41-40.5-42.2l-22-47.3c42.6-45.1 74.4-100.2 57.9-157.1-10.3-38.4 58.2-62.2 122.3-53.7-24.5-21.2-56-30.5-85.8-33.9-8.8-21.8-32.6-37.4-61.3-37.4zm11 21.9c9.8 0 17.8 7.9 17.8 17.8 0 9.8-8 17.8-17.8 17.8-9.8 0-17.7-7.9-17.7-17.7 0-9.8 7.9-17.7 17.8-17.7zm-58.1 274.3l16.3 34.9c-11.6 2.7-22.3 8.2-29.3 15.7-3.3-10.8-6.5-20.9-9.5-30.3 7.6-6.4 15.1-13.3 22.5-20.3z"/></svg>