<svg xmlns="http://www.w3.org/2000/svg" viewBox="0 0 512 512" width="26" height="26" fill="currentColor" aria-hidden="true"><path d="M263.6 19.1l-53.9 59.6v90.1l-34.7-60.2-35.6-17.6-9.3 43.5 48.4 83.8-20-5.3-28.7 10.5 19.7 23.5 30.3 8.1-59.2 15.8-23.4 28 34.3 12.5 66.9-17.9-27.9 48.3 5.6 62.7 33.8-15.7v33.1l46.8 66.6 46.8-66.6v-72.8l21.6 68.1 35.9 27.3 13.6-43-32.7-103 42.9 11.5 26.9-13.8-17.8-20.2-64.6-17.3-.1-.2 82.3-22 21.1-24.1-32-16.4-73.7 19.8 39-67.6-3.6-55.2-58.8 19V78.6l-39.7-59.6zm-5.7 109.6l22.4 115 39.9 12-39.9 12-22.4 115-22.4-114.5-41.6-12.5 41.6-12.5 22.4-114.5z"/></svg>