<svg xmlns="http://www.w3.org/2000/svg" viewBox="0 0 512 512" width="34" height="34" fill="currentColor" aria-hidden="true"><path d="M239 21.9c-1.4 0-2.8 0-4.3 0-19.1.3-40.9 3.1-67 9.7 57.4 4.8 94.6 22.8 116.3 46.4-24-5.1-49.5-7-75.4-5.8-65.4 3-133.1 25.9-186.3 66.6v352.8h69.3c24.6-124.2 150.1-151.7 204.6-123.3-6.4 7.5-14.1 14-22.9 19.6l117.6 103.5c11.4-9.2 22-19 32-29.3 3.6-6.8 5.2-14.5 5.4-23.2-6.9 9.6-16.3 16-29.8 21.8-23.8-10.5-35.2-38.2-25.3-62.5 7.5-18.6 25.3-30 44.2-30.2 6.3-.1 12.7 1 18.9 3.6 7.8 3.2 14.3 8.1 19.3 14.1-1.9 17.6-5.6 29.9-14.1 40.3 8.3-2.5 15.3-6 20.8-11.1 11.1-15.1 21.4-30.7 31.4-46.6-140.3-55.4-112.7-123.3-263-165.8 40.2 27.9 64 55.1 75.5 80.1-81.8-31.7-164.5-34-229 8.8 42.3-102.2 173.4-141.1 226.1-117.7-1.6 4.7-3.6 9.3-5.9 13.7L451 218c5.3-13.8 9.6-27.6 13.1-41.6-.4-7.5-2.8-14.9-6.9-22.5-1.2 11.7-6 22-14.7 33.6-26 2.9-49.8-15.4-53.4-41.5-3.7-26.5 14.8-51 41.3-54.7 2.5-.3 4.9-.5 7.4-.5 5.7.1 11.2 1.2 16.3 3.1 7.2 16.3 10.2 28.9 8 42.1 5.9-6.3 10.1-12.8 12.4-19.9 2.1-18.7 3.2-37.5 3.9-56.3-121.6 18.1-150.7-37.6-239.4-38.1zm89.8 48.4v.1c8-.3 15.1 5.5 16.2 13.6 1.2 8.6-4.8 16.6-13.4 17.8-8.6 1.2-16.6-4.8-17.8-13.4-1.2-8.6 4.8-16.6 13.5-17.8.5-.2 1.1-.2 1.6-.2zm22.5 230.2c2 0 4.1.3 6.2 1.2 8.1 3.3 12 12.5 8.7 20.5-3.3 8.1-12.5 12-20.6 8.7-8.1-3.3-12-12.5-8.7-20.5 2.5-6.1 8.3-9.8 14.4-9.8z"/></svg>