<svg xmlns="http://www.w3.org/2000/svg" viewBox="0 0 48 48" width="48" height="48" role="img" aria-label="Ascendant Trident, Mystic, Ascendant Husk set"><defs><radialGradient id="gmystic48"><stop offset=".35" stop-color="#B2A566" stop-opacity="0.16"/><stop offset="1" stop-color="#B2A566" stop-opacity="0"/></radialGradient></defs><rect width="48" height="48" rx="9" fill="url(#gmystic48)"/><rect x=".8" y=".8" width="46.4" height="46.4" rx="9" fill="none" stroke="#B2A566" stroke-width="1" stroke-opacity="0.71"/><path d="M 3.0 12.1 L 3.0 3.0 L 12.1 3.0" fill="none" stroke="#B2A566" stroke-width="1.4" stroke-opacity=".9" stroke-linecap="round"/><path d="M 45.0 12.1 L 45.0 3.0 L 35.9 3.0" fill="none" stroke="#B2A566" stroke-width="1.4" stroke-opacity=".9" stroke-linecap="round"/><path d="M 3.0 35.9 L 3.0 45.0 L 12.1 45.0" fill="none" stroke="#B2A566" stroke-width="1.4" stroke-opacity=".9" stroke-linecap="round"/><path d="M 45.0 35.9 L 45.0 45.0 L 35.9 45.0" fill="none" stroke="#B2A566" stroke-width="1.4" stroke-opacity=".9" stroke-linecap="round"/><defs><linearGradient id="mgtrident948" x1="0" y1="0" x2="1" y2="1"><stop offset="0" stop-color="#FFFFFF"/><stop offset=".5" stop-color="#E7DDF0"/><stop offset="1" stop-color="#9A84B2"/></linearGradient><mask id="mmtrident948"><g fill="#fff"><path d="M103 16.4C87.4 31.4 72.9 78.3 91.1 110.9c74.2 132.6-2.6 198.3-39.5 92.7-28 89.6 6.8 197.7 101.2 252.2l56-56-17.2-17.5c-22.3-22.3-23.1-58.4-.8-80.7l41.1-41.1-9-8.9 57.3-21.1-21.2 57.2-8.7-8.7-41 40.4c-12.5 12.5-12.5 31.9 0 44.4l17.8 17.8 73.7-73.7-13.7-13.7 75.8-27.9-28 75.7-15.6-15.5-73.9 73.6 18.7 18.7c12.5 12.5 31.9 12.5 44.4 0l44.3-44.3-8.8-8.8 57.3-21.1-21.2 57.2-9.2-9.1-44 44.7c-22.3 22.3-59.1 22.2-81.5 0L227 418.2l-50 49.8c33.2 14.5 72.5 22.9 117.7 22.9 250.7 0 238.8-311.4 86-351.8 34.1 37.6 2.5 82.9-51.4 75.7-66.7-8.8-71.9-73.3-58.9-99.5 24.6-49.5-17.6-101.5-93.2-96.8 103.5 77.3-53.1 162.6-74.2-2z"/></g></mask><radialGradient id="mhtrident948"><stop offset="0" stop-color="#F4E9FF" stop-opacity=".38"/><stop offset="1" stop-color="#F4E9FF" stop-opacity="0"/></radialGradient></defs><circle cx="24" cy="24" r="15.5" fill="url(#mhtrident948)"/><g transform="translate(11.5 11.5) scale(0.0488)"><g fill="url(#mgtrident948)"><path d="M103 16.4C87.4 31.4 72.9 78.3 91.1 110.9c74.2 132.6-2.6 198.3-39.5 92.7-28 89.6 6.8 197.7 101.2 252.2l56-56-17.2-17.5c-22.3-22.3-23.1-58.4-.8-80.7l41.1-41.1-9-8.9 57.3-21.1-21.2 57.2-8.7-8.7-41 40.4c-12.5 12.5-12.5 31.9 0 44.4l17.8 17.8 73.7-73.7-13.7-13.7 75.8-27.9-28 75.7-15.6-15.5-73.9 73.6 18.7 18.7c12.5 12.5 31.9 12.5 44.4 0l44.3-44.3-8.8-8.8 57.3-21.1-21.2 57.2-9.2-9.1-44 44.7c-22.3 22.3-59.1 22.2-81.5 0L227 418.2l-50 49.8c33.2 14.5 72.5 22.9 117.7 22.9 250.7 0 238.8-311.4 86-351.8 34.1 37.6 2.5 82.9-51.4 75.7-66.7-8.8-71.9-73.3-58.9-99.5 24.6-49.5-17.6-101.5-93.2-96.8 103.5 77.3-53.1 162.6-74.2-2z"/></g><g mask="url(#mmtrident948)"><rect width="512" height="512" fill="#FFFFFF" opacity=".18"/></g></g><text x="4" y="44.5" font-size="8.6" fill="#A077B8" fill-opacity=".85" font-family="'Noto Serif SC',serif">仙</text><text x="44" y="44.5" text-anchor="end" font-size="8.6" fill="#B2A566" fill-opacity=".9" font-family="'Noto Serif SC',serif">玄</text></svg>