<svg viewBox="0 0 200 200" width="256" height="256" xmlns="http://www.w3.org/2000/svg"><defs><radialGradient id="tgpendanttoad20"><stop offset="0" stop-color="#8FB4F0" stop-opacity=".18"/><stop offset="1" stop-color="#8FB4F0" stop-opacity="0"/></radialGradient></defs><rect x="0" y="0" width="200" height="200" rx="4" fill="#0A1512"/><rect x="0" y="0" width="200" height="200" rx="4" fill="url(#tgpendanttoad20)"/><path d="M 62 46 q 38 30 76 0" fill="none" stroke="#5D8F6A" stroke-width="6.0" stroke-linecap="round" fill-opacity="0.90"/><path d="M 62 46 q 38 30 76 0" fill="none" stroke="#8FD9A0" stroke-width="2.2" stroke-linecap="round" fill-opacity="0.55"/><circle cx="100" cy="66" r="7.5" fill="none" stroke="#8FD9A0" stroke-width="4"/><polygon points="100.0,168.0 108.0,180.0 100.0,190.0 92.0,180.0" fill="#8FD9A0" fill-opacity="0.80"/><g transform="translate(100.0 118.0) scale(0.920)"><path d="M -20 4 a 21 21 0 1 0 26 -22 a 17 17 0 1 1 -26 22 Z" fill="#8FD9A0" stroke="none" stroke-width="2.0" stroke-linecap="round" stroke-linejoin="round" fill-opacity="1.00"/><ellipse cx="9.0" cy="10.0" rx="4.2" ry="4.2" fill="#BCE8C6" fill-opacity="0.75" transform="rotate(0.0 9.0 10.0)"/><ellipse cx="18.0" cy="0.0" rx="4.2" ry="4.2" fill="#BCE8C6" fill-opacity="0.75" transform="rotate(0.0 18.0 0.0)"/><ellipse cx="13.0" cy="-12.0" rx="4.2" ry="4.2" fill="#BCE8C6" fill-opacity="0.75" transform="rotate(0.0 13.0 -12.0)"/></g><rect x="1.5" y="1.5" width="197" height="197" rx="4" fill="none" stroke="#3A5FA8" stroke-width="3"/><polygon points="4,11 11,4 18,11 11,18" fill="#8FB4F0"/><polygon points="182,11 189,4 196,11 189,18" fill="#8FB4F0"/><polygon points="4,189 11,182 18,189 11,196" fill="#8FB4F0"/><polygon points="182,189 189,182 196,189 189,196" fill="#8FB4F0"/><text x="182" y="192" text-anchor="end" font-family="Noto Serif SC,serif" font-size="17" font-weight="500" fill="#8FB4F0" fill-opacity=".85">玄</text></svg>