<svg viewBox="0 0 200 200" width="256" height="256" xmlns="http://www.w3.org/2000/svg"><defs><radialGradient id="tgrobehare20"><stop offset="0" stop-color="#8FB4F0" stop-opacity=".18"/><stop offset="1" stop-color="#8FB4F0" stop-opacity="0"/></radialGradient></defs><rect x="0" y="0" width="200" height="200" rx="4" fill="#0A1512"/><rect x="0" y="0" width="200" height="200" rx="4" fill="url(#tgrobehare20)"/><path d="M 48 178 v -44 q 0 -26 12 -36 q 10 -8 26 -12 l 14 16 l 14 -16 q 16 4 26 12 q 12 10 12 36 v 44" fill="none" stroke="#9A884E" stroke-width="7.0" stroke-linecap="round" fill-opacity="1.00"/><path d="M 86 86 l 14 16 l 14 -16" fill="none" stroke="#F2CE72" stroke-width="4.5" stroke-linecap="round" fill-opacity="1.00"/><rect x="46.0" y="152.0" width="108.0" height="8.0" rx="3.0" fill="#F2CE72" fill-opacity="0.80" transform="rotate(0.0 100.0 156.0)"/><path d="M 48 178 h 104" fill="none" stroke="#9A884E" stroke-width="7.0" stroke-linecap="round" fill-opacity="1.00"/><g transform="translate(100.0 124.0) scale(0.800)"><path d="M 5 6 q 3 -26 17 -40 q 9 16 -14 42 Z" fill="#F2CE72" stroke="none" stroke-width="2.0" stroke-linecap="round" stroke-linejoin="round" fill-opacity="1.00"/><path d="M 8 0 q 3 -14 9 -24" fill="none" stroke="#F7E2AA" stroke-width="2.2" stroke-linecap="round" stroke-linejoin="round" fill-opacity="0.50"/><path d="M -5 6 q -3 -26 -17 -40 q -9 16 14 42 Z" fill="#F2CE72" stroke="none" stroke-width="2.0" stroke-linecap="round" stroke-linejoin="round" fill-opacity="1.00"/><path d="M -8 0 q -3 -14 -9 -24" fill="none" stroke="#F7E2AA" stroke-width="2.2" stroke-linecap="round" stroke-linejoin="round" fill-opacity="0.50"/><ellipse cx="0.0" cy="18.0" rx="12.0" ry="10.0" fill="#F2CE72" fill-opacity="0.92" transform="rotate(0.0 0.0 18.0)"/><ellipse cx="5.0" cy="15.0" rx="2.3" ry="3.0" fill="#9A884E" fill-opacity="0.75" transform="rotate(0.0 5.0 15.0)"/><ellipse cx="-5.0" cy="15.0" rx="2.3" ry="3.0" fill="#9A884E" fill-opacity="0.75" transform="rotate(0.0 -5.0 15.0)"/></g><rect x="1.5" y="1.5" width="197" height="197" rx="4" fill="none" stroke="#3A5FA8" stroke-width="3"/><polygon points="4,11 11,4 18,11 11,18" fill="#8FB4F0"/><polygon points="182,11 189,4 196,11 189,18" fill="#8FB4F0"/><polygon points="4,189 11,182 18,189 11,196" fill="#8FB4F0"/><polygon points="182,189 189,182 196,189 189,196" fill="#8FB4F0"/><text x="182" y="192" text-anchor="end" font-family="Noto Serif SC,serif" font-size="17" font-weight="500" fill="#8FB4F0" fill-opacity=".85">玄</text></svg>