<svg viewBox="0 0 200 200" width="256" height="256" xmlns="http://www.w3.org/2000/svg"><defs><radialGradient id="tgvesselturtle20"><stop offset="0" stop-color="#8FB4F0" stop-opacity=".18"/><stop offset="1" stop-color="#8FB4F0" stop-opacity="0"/></radialGradient></defs><rect x="0" y="0" width="200" height="200" rx="4" fill="#0A1512"/><rect x="0" y="0" width="200" height="200" rx="4" fill="url(#tgvesselturtle20)"/><rect x="56.0" y="44.0" width="88.0" height="13.0" rx="4.0" fill="#5D789C" fill-opacity="1.00" transform="rotate(0.0 100.0 50.5)"/><rect x="58.0" y="46.0" width="84.0" height="5.0" rx="2.5" fill="#8FB4F0" fill-opacity="0.70" transform="rotate(0.0 100.0 48.5)"/><rect x="92.0" y="28.0" width="16.0" height="18.0" rx="4.0" fill="#5D789C" fill-opacity="1.00" transform="rotate(0.0 100.0 37.0)"/><ellipse cx="100.0" cy="28.0" rx="12.0" ry="6.0" fill="#8FB4F0" fill-opacity="0.85" transform="rotate(0.0 100.0 28.0)"/><path d="M 62 120 q 4 48 38 54 q 34 -6 38 -54" fill="none" stroke="#5D789C" stroke-width="7.0" stroke-linecap="round" fill-opacity="1.00"/><path d="M 72 158 q 28 10 56 0" fill="none" stroke="#8FB4F0" stroke-width="4.0" stroke-linecap="round" fill-opacity="0.70"/><g transform="translate(100.0 118.0) scale(0.780)"><polygon points="25.0,0.0 12.5,21.8 -12.5,21.8 -25.0,0.0 -12.5,-21.8 12.5,-21.8" fill="#8FB4F0" fill-opacity="0.95"/><polygon points="12.0,0.0 6.0,10.4 -6.0,10.4 -12.0,0.0 -6.0,-10.4 6.0,-10.4" fill="#5D789C" fill-opacity="0.35"/><polygon points="20.4,8.0 17.2,13.7 10.7,13.7 7.4,8.0 10.7,2.3 17.2,2.3" fill="#5D789C" fill-opacity="0.30"/><polygon points="-7.4,8.0 -10.7,13.7 -17.2,13.7 -20.4,8.0 -17.2,2.3 -10.7,2.3" fill="#5D789C" fill-opacity="0.30"/><polygon points="6.5,-16.0 3.2,-10.3 -3.2,-10.3 -6.5,-16.0 -3.2,-21.7 3.2,-21.7" fill="#5D789C" fill-opacity="0.30"/></g><rect x="1.5" y="1.5" width="197" height="197" rx="4" fill="none" stroke="#3A5FA8" stroke-width="3"/><polygon points="4,11 11,4 18,11 11,18" fill="#8FB4F0"/><polygon points="182,11 189,4 196,11 189,18" fill="#8FB4F0"/><polygon points="4,189 11,182 18,189 11,196" fill="#8FB4F0"/><polygon points="182,189 189,182 196,189 189,196" fill="#8FB4F0"/><text x="182" y="192" text-anchor="end" font-family="Noto Serif SC,serif" font-size="17" font-weight="500" fill="#8FB4F0" fill-opacity=".85">玄</text></svg>