<svg xmlns="http://www.w3.org/2000/svg" viewBox="0 0 320 300" preserveAspectRatio="none" width="100%" height="100%" aria-hidden="true">
    <defs>
      <linearGradient id="skys9" x1="0" y1="0" x2="0" y2="1">
        <stop offset="0" stop-color="#120a17"/>
        <stop offset=".62" stop-color="#501f3c"/>
        <stop offset=".86" stop-color="#aa3d73"/>
      </linearGradient>
      <linearGradient id="hazes9" x1="0" y1="0" x2="0" y2="1">
        <stop offset="0" stop-color="#FF5AA6" stop-opacity="0"/>
        <stop offset="1" stop-color="#FF5AA6" stop-opacity=".26"/>
      </linearGradient>
      <linearGradient id="edges9" x1="0" y1="0" x2="1" y2="0">
        <stop offset="0" stop-color="#FF5AA6" stop-opacity="0"/>
        <stop offset=".5" stop-color="#FF5AA6" stop-opacity=".6"/>
        <stop offset="1" stop-color="#FF5AA6" stop-opacity="0"/>
      </linearGradient>
    </defs>
    <rect width="320" height="262" fill="url(#skys9)"/>
    <circle cx="79.7" cy="26.9" r="1.6" fill="#FF5AA6" opacity="0.17"/><circle cx="126.2" cy="42.6" r="1.1" fill="#FF5AA6" opacity="0.14"/><circle cx="205.8" cy="147.1" r="2.1" fill="#FF5AA6" opacity="0.29"/><circle cx="187.7" cy="113.2" r="1.6" fill="#FF5AA6" opacity="0.38"/><circle cx="45.0" cy="57.6" r="0.9" fill="#FF5AA6" opacity="0.25"/><circle cx="107.6" cy="124.4" r="1.6" fill="#FF5AA6" opacity="0.42"/><circle cx="292.8" cy="128.7" r="1.3" fill="#FF5AA6" opacity="0.23"/><circle cx="267.5" cy="143.4" r="2.2" fill="#FF5AA6" opacity="0.12"/><circle cx="232.6" cy="154.8" r="1.6" fill="#FF5AA6" opacity="0.18"/><circle cx="45.6" cy="18.3" r="1.6" fill="#FF5AA6" opacity="0.23"/><circle cx="116.8" cy="108.3" r="1.7" fill="#FF5AA6" opacity="0.13"/><circle cx="105.7" cy="96.5" r="0.8" fill="#FF5AA6" opacity="0.30"/><circle cx="67.3" cy="15.5" r="0.9" fill="#FF5AA6" opacity="0.14"/><circle cx="224.5" cy="17.4" r="1.2" fill="#FF5AA6" opacity="0.22"/><circle cx="260.9" cy="49.5" r="0.9" fill="#FF5AA6" opacity="0.35"/><circle cx="200.8" cy="142.3" r="1.4" fill="#FF5AA6" opacity="0.16"/><circle cx="1.1" cy="118.4" r="1.3" fill="#FF5AA6" opacity="0.32"/><circle cx="289.0" cy="18.4" r="2.0" fill="#FF5AA6" opacity="0.19"/><circle cx="37.7" cy="118.0" r="1.3" fill="#FF5AA6" opacity="0.23"/><circle cx="231.1" cy="147.9" r="1.1" fill="#FF5AA6" opacity="0.27"/><circle cx="43.4" cy="87.2" r="2.1" fill="#FF5AA6" opacity="0.31"/><circle cx="240.7" cy="151.9" r="1.9" fill="#FF5AA6" opacity="0.15"/><circle cx="136.5" cy="69.8" r="0.9" fill="#FF5AA6" opacity="0.40"/><circle cx="270.3" cy="42.2" r="1.7" fill="#FF5AA6" opacity="0.29"/>
    <polygon points="0,150 0,12 46,20 91,29 137,89 183,52 229,47 274,108 320,45 320,150" fill="#3c1830" transform="translate(0 56)"/>
    <polygon points="0,122 0,23 53,17 107,79 160,53 213,36 267,57 320,68 320,122" fill="#231021" transform="translate(0 140)"/>
    <rect y="234" width="320" height="28" fill="url(#hazes9)"/>
    <rect y="262" width="320" height="38" fill="#05060F"/>
    <rect y="260" width="320" height="2" fill="url(#edges9)"/>
  </svg>